<svg width="26" height="24" viewBox="0 0 26 24" fill="none" xmlns="http://www.w3.org/2000/svg">
<path d="M13 11.441C14.5042 11.441 15.9468 10.8435 17.0105 9.77983C18.0741 8.71618 18.6717 7.27357 18.6717 5.76934C18.6717 4.26512 18.0741 2.8225 17.0105 1.75886C15.9468 0.695207 14.5042 0.0976562 13 0.0976562C11.4958 0.0976563 10.0532 0.695207 8.98951 1.75886C7.92586 2.8225 7.32831 4.26512 7.32831 5.76934C7.32831 7.27357 7.92586 8.71618 8.98951 9.77983C10.0532 10.8435 11.4958 11.441 13 11.441ZM13 13.9329C5.45912 13.9329 0.625 18.0943 0.625 20.1204V23.9038H25.375V20.1204C25.375 17.6702 20.7985 13.9329 13 13.9329Z" fill="#FDFDFD" stroke="black" stroke-width="0.00064"/>
</svg>
