<svg width="26" height="24" viewBox="0 0 26 24" fill="none" xmlns="http://www.w3.org/2000/svg">
<path d="M13 11.4409C14.5042 11.4409 15.9468 10.8434 17.0105 9.77971C18.0741 8.71606 18.6717 7.27345 18.6717 5.76922C18.6717 4.265 18.0741 2.82238 17.0105 1.75873C15.9468 0.695085 14.5042 0.0975342 13 0.0975342C11.4958 0.0975342 10.0532 0.695085 8.98951 1.75873C7.92586 2.82238 7.32831 4.265 7.32831 5.76922C7.32831 7.27345 7.92586 8.71606 8.98951 9.77971C10.0532 10.8434 11.4958 11.4409 13 11.4409ZM13 13.9328C5.45913 13.9328 0.625 18.0942 0.625 20.1203V23.9037H25.375V20.1203C25.375 17.67 20.7985 13.9328 13 13.9328Z" fill="#FDFDFD" stroke="black" stroke-width="0.00064"/>
</svg>
