<svg width="28" height="28" viewBox="0 0 28 28" fill="none" xmlns="http://www.w3.org/2000/svg">
<path d="M5.44965 3.5H27.5L24.5 14H7.06506M26 20H8L5 0.5H0.5M9.5 26C9.5 26.8284 8.82842 27.5 8 27.5C7.17158 27.5 6.5 26.8284 6.5 26C6.5 25.1716 7.17158 24.5 8 24.5C8.82842 24.5 9.5 25.1716 9.5 26ZM26 26C26 26.8284 25.3284 27.5 24.5 27.5C23.6716 27.5 23 26.8284 23 26C23 25.1716 23.6716 24.5 24.5 24.5C25.3284 24.5 26 25.1716 26 26Z" stroke="#FDFDFD" stroke-width="3.2" stroke-linecap="round" stroke-linejoin="round"/>
</svg>
