<svg width="48" height="46" viewBox="0 0 48 46" fill="none" xmlns="http://www.w3.org/2000/svg">
<path fill-rule="evenodd" clip-rule="evenodd" d="M5.00312 0H42.9968L48 13.6449V18C48 20.0043 47.2472 21.8573 46 23.2445V46H2V23.2445C0.752907 21.8573 0 20.0043 0 18V13.6449L5.00312 0ZM40.5 25.7144C41.0152 25.7144 41.5168 25.6616 42 25.5613V42H32V30H16V42H6V25.5613C6.48325 25.6616 6.98469 25.7144 7.5 25.7144C9.69677 25.7144 11.6416 24.7557 13 23.2445C14.3584 24.7557 16.3032 25.7144 18.5 25.7144C20.6968 25.7144 22.6416 24.7557 24 23.2445C25.3584 24.7557 27.3032 25.7144 29.5 25.7144C31.6968 25.7144 33.6416 24.7557 35 23.2445C36.3584 24.7557 38.3032 25.7144 40.5 25.7144ZM20 42H28V34H20V42ZM44 16V18C44 20.124 42.3616 21.7144 40.5 21.7144C38.6384 21.7144 37 20.124 37 18V16H44ZM43.1365 12L40.2032 4H7.79688L4.86355 12H43.1365ZM4 16V18C4 20.124 5.63837 21.7144 7.5 21.7144C9.36163 21.7144 11 20.124 11 18V16H4ZM15 16V18C15 20.124 16.6384 21.7144 18.5 21.7144C20.3616 21.7144 22 20.124 22 18V16H15ZM26 16V18C26 20.124 27.6384 21.7144 29.5 21.7144C31.3616 21.7144 33 20.124 33 18V16H26Z" fill="#071330"/>
</svg>
