<svg width="15" height="20" viewBox="0 0 15 20" fill="none" xmlns="http://www.w3.org/2000/svg">
<path d="M14.9615 6.97897L14.346 8.87903C14.1448 9.50467 13.1773 9.99469 12.1434 9.99469H10.0595V18.75C10.0595 19.44 9.21365 20 8.09727 20H5.06092C3.94454 20 3.03635 19.4387 3.03635 18.7493V9.99469H2.02457C0.90819 9.99469 0 9.43404 0 8.74402V6.86834C0 6.17894 0.90819 5.61768 2.02457 5.61768H3.03635V3.75137C3.03635 1.69693 5.72773 0.0250008 9.0477 0.00750023C9.06882 0.00687522 9.08693 0 9.10905 0H13.1582C13.7164 0 14.0825 0.279384 14.0825 0.624395V3.74949C14.0825 4.09513 13.7164 4.37701 13.1582 4.37701H10.1208L10.1198 5.61768H13.1562C13.7254 5.61768 14.2504 5.76706 14.5944 6.02706C14.9394 6.28645 15.0731 6.63396 14.9615 6.97897ZM9.14627 6.86834C9.13219 6.86896 9.12112 6.87334 9.10704 6.87334C8.54785 6.87271 8.09426 6.59271 8.09526 6.24769V6.24332L8.09727 3.75137C8.09727 3.40573 8.54986 3.12635 9.10905 3.12635H12.1454V1.25066H9.14828C9.13118 1.25066 9.1171 1.25629 9.099 1.25629C6.87227 1.25629 5.06092 2.3757 5.06092 3.75137V6.2527C5.06092 6.59833 4.60733 6.87834 4.04813 6.87834C4.02098 6.87834 3.99785 6.86959 3.97069 6.86834H2.02457V8.74402H4.04813C4.60733 8.74402 5.06092 9.02403 5.06092 9.36967C5.06092 9.40217 5.03879 9.42967 5.03075 9.46092V18.75L8.09727 18.7493V9.37592C8.09727 9.37342 8.09526 9.37154 8.09526 9.36967C8.09526 9.02403 8.54785 8.74402 9.10704 8.74402H12.1434C12.2168 8.74402 12.3476 8.6784 12.3606 8.63464L12.9329 6.86834H9.14627Z" fill="#FDFDFD"/>
</svg>
