<svg width="20" height="20" viewBox="0 0 20 20" fill="none" xmlns="http://www.w3.org/2000/svg">
<g clip-path="url(#clip0_67_351)">
<path fill-rule="evenodd" clip-rule="evenodd" d="M10 15C12.7614 15 15 12.7614 15 10C15 7.23857 12.7614 5 10 5C7.23857 5 5 7.23857 5 10C5 12.7614 7.23857 15 10 15ZM10 13.3333C11.8409 13.3333 13.3333 11.8409 13.3333 10C13.3333 8.15905 11.8409 6.66667 10 6.66667C8.15905 6.66667 6.66667 8.15905 6.66667 10C6.66667 11.8409 8.15905 13.3333 10 13.3333Z" fill="#FDFDFD"/>
<path d="M15 4.16663C14.5398 4.16663 14.1667 4.53973 14.1667 4.99996C14.1667 5.46019 14.5398 5.83329 15 5.83329C15.4603 5.83329 15.8334 5.46019 15.8334 4.99996C15.8334 4.53973 15.4603 4.16663 15 4.16663Z" fill="#FDFDFD"/>
<path fill-rule="evenodd" clip-rule="evenodd" d="M1.37828 3.56342C0.833313 4.63298 0.833313 6.03312 0.833313 8.83337V11.1667C0.833313 13.967 0.833313 15.3671 1.37828 16.4366C1.85765 17.3775 2.62255 18.1424 3.56336 18.6217C4.63292 19.1667 6.03305 19.1667 8.83331 19.1667H11.1666C13.9669 19.1667 15.3671 19.1667 16.4366 18.6217C17.3774 18.1424 18.1423 17.3775 18.6216 16.4366C19.1666 15.3671 19.1666 13.967 19.1666 11.1667V8.83337C19.1666 6.03312 19.1666 4.63298 18.6216 3.56342C18.1423 2.62261 17.3774 1.85771 16.4366 1.37834C15.3671 0.833374 13.9669 0.833374 11.1666 0.833374H8.83331C6.03305 0.833374 4.63292 0.833374 3.56336 1.37834C2.62255 1.85771 1.85765 2.62261 1.37828 3.56342ZM11.1666 2.50004H8.83331C7.40568 2.50004 6.43519 2.50134 5.68505 2.56262C4.95435 2.62232 4.58068 2.73053 4.32001 2.86335C3.6928 3.18293 3.18287 3.69287 2.86329 4.32007C2.73047 4.58074 2.62226 4.95441 2.56256 5.68511C2.50128 6.43525 2.49998 7.40574 2.49998 8.83337V11.1667C2.49998 12.5944 2.50128 13.5648 2.56256 14.315C2.62226 15.0457 2.73047 15.4194 2.86329 15.68C3.18287 16.3072 3.6928 16.8171 4.32001 17.1367C4.58068 17.2695 4.95435 17.3778 5.68505 17.4375C6.43519 17.4987 7.40568 17.5 8.83331 17.5H11.1666C12.5943 17.5 13.5647 17.4987 14.3149 17.4375C15.0456 17.3778 15.4193 17.2695 15.68 17.1367C16.3071 16.8171 16.8171 16.3072 17.1366 15.68C17.2695 15.4194 17.3777 15.0457 17.4374 14.315C17.4986 13.5648 17.5 12.5944 17.5 11.1667V8.83337C17.5 7.40574 17.4986 6.43525 17.4374 5.68511C17.3777 4.95441 17.2695 4.58074 17.1366 4.32007C16.8171 3.69287 16.3071 3.18293 15.68 2.86335C15.4193 2.73053 15.0456 2.62232 14.3149 2.56262C13.5647 2.50134 12.5943 2.50004 11.1666 2.50004Z" fill="#FDFDFD"/>
</g>
<defs>
<clipPath id="clip0_67_351">
<rect width="20" height="20" fill="white"/>
</clipPath>
</defs>
</svg>
