<svg width="48" height="48" viewBox="0 0 48 48" fill="none" xmlns="http://www.w3.org/2000/svg">
<path d="M45.1683 21.3333C45.5184 21.3333 46.0304 21.4024 46.3539 21.5363C46.6773 21.6704 46.9712 21.8667 47.2189 22.1144C47.4667 22.3621 47.6629 22.656 47.7971 22.9795C47.9309 23.3029 48 23.6499 48 24C48 24.3501 47.9309 24.6971 47.7971 25.0205C47.6629 25.344 47.4667 25.6379 47.2189 25.8856C46.9712 26.1333 46.6773 26.3296 46.3539 26.4637C46.0304 26.5976 45.5184 26.6667 45.1683 26.6667M45.3333 24C45.3333 12.2179 35.7821 2.66667 24 2.66667M45.3333 24H34.6667M45.3333 24C45.3333 27.5923 44.4453 30.9773 42.8771 33.9475M24 2.66667V13.3333M24 2.66667C18.109 2.66667 12.7756 5.05448 8.91507 8.91507M42.8771 33.9475C42.5683 33.824 42.2403 33.7536 41.9072 33.7389C41.5187 33.7219 41.1304 33.7816 40.7645 33.9149L42.7915 39.4835C43.1571 39.3504 43.4928 39.1464 43.7797 38.8837C44.0667 38.6208 44.2989 38.304 44.4635 37.9512C44.6277 37.5987 44.7213 37.2171 44.7381 36.8283C44.7552 36.4395 44.6955 36.0512 44.5624 35.6856C44.4293 35.32 44.2253 34.9843 43.9627 34.6973C43.6997 34.4104 43.3829 34.1781 43.0301 34.0136C42.9797 33.9901 42.9285 33.968 42.8771 33.9475ZM2.83171 26.6667C2.48152 26.6667 1.96971 26.5976 1.64619 26.4637C1.32264 26.3296 1.02867 26.1333 0.78104 25.8856C0.533414 25.6379 0.337013 25.344 0.202986 25.0205C0.0689864 24.6971 0 24.3501 0 24C0 23.6499 0.0689864 23.3029 0.202986 22.9795C0.337013 22.656 0.533414 22.3621 0.78104 22.1144C1.02867 21.8667 1.32264 21.6704 1.64619 21.5363C1.96971 21.4024 2.48152 21.3333 2.83171 21.3333M2.66667 24H13.3333M2.66667 24C2.66667 18.109 5.05448 12.7756 8.91507 8.91507M2.66667 24C2.66667 27.5936 3.55525 30.98 5.12472 33.9507M8.91507 8.91507L16 16M5.12472 33.9507C5.076 33.9704 5.02779 33.9915 4.98008 34.0136C4.62744 34.1781 4.31064 34.4104 4.04776 34.6971C3.78488 34.984 3.58109 35.32 3.448 35.6856C3.31493 36.0512 3.25517 36.4395 3.27213 36.8283C3.28912 37.2168 3.38248 37.5984 3.54693 37.9512C3.71136 38.3037 3.94365 38.6205 4.23053 38.8835C4.51741 39.1464 4.85325 39.3501 5.21888 39.4832L7.24568 33.9147C6.88003 33.7816 6.49176 33.7219 6.10304 33.7387C5.76688 33.7536 5.43608 33.8253 5.12472 33.9507ZM6.85635 11.301C6.58123 11.0259 6.3 10.6369 6.15109 10.2774C6.00219 9.91795 5.92555 9.53267 5.92555 9.14355C5.92555 8.75445 6.00219 8.36917 6.15109 8.00968C6.3 7.65019 6.51824 7.32355 6.79339 7.04843C7.06851 6.77328 7.39515 6.55504 7.75464 6.40613C8.11413 6.25723 8.49941 6.18059 8.88851 6.18059C9.27763 6.18059 9.66291 6.25723 10.0224 6.40613C10.3819 6.55504 10.7135 6.81744 10.9887 7.09256M36.9536 7.04827C37.2288 6.77312 37.6179 6.55488 37.9773 6.40597C38.3368 6.25707 38.7221 6.18043 39.1112 6.18043C39.5005 6.18043 39.8856 6.25707 40.2453 6.40597C40.6048 6.55488 40.9312 6.77312 41.2064 7.04827C41.4816 7.32341 41.6997 7.65003 41.8488 8.00952C41.9976 8.36901 42.0744 8.75429 42.0744 9.14339C42.0744 9.53251 41.9976 9.91779 41.8488 10.2773C41.6997 10.6367 41.4213 11.0294 41.1461 11.3045M21.3333 2.83171C21.3333 2.48152 21.4024 1.96971 21.5363 1.64619C21.6704 1.32264 21.8667 1.02867 22.1144 0.78104C22.3621 0.533414 22.656 0.337013 22.9795 0.202986C23.3029 0.0689864 23.6499 0 24 0C24.3501 0 24.6971 0.0689864 25.0205 0.202986C25.344 0.337013 25.6379 0.533414 25.8856 0.78104C26.1333 1.02867 26.3296 1.32264 26.4637 1.64619C26.5976 1.96971 26.6667 2.48152 26.6667 2.83171M32 16L39.1112 8.94149M22.9168 26.4373C23.2477 26.5848 23.6144 26.6667 24 26.6667C24.3856 26.6667 24.7523 26.5848 25.0832 26.4373M22.9168 26.4373C21.9837 26.0221 21.3333 25.0869 21.3333 24C21.3333 22.5272 22.5272 21.3333 24 21.3333C25.4728 21.3333 26.6667 22.5272 26.6667 24C26.6667 25.0869 26.0163 26.0221 25.0832 26.4373M22.9168 26.4373L13.3333 48H34.6667L25.0832 26.4373M24 24H24.0267" stroke="#071330" stroke-width="5.33333" stroke-linecap="round" stroke-linejoin="round"/>
</svg>
