<svg width="34" height="34" viewBox="0 0 34 34" fill="none" xmlns="http://www.w3.org/2000/svg">
<path fill-rule="evenodd" clip-rule="evenodd" d="M24.5588 22.4366C26.4071 20.126 27.5123 17.1952 27.5123 14.0061C27.5123 6.54691 21.4653 0.5 14.0061 0.5C6.54691 0.5 0.5 6.54691 0.5 14.0061C0.5 21.4653 6.54691 27.5123 14.0061 27.5123C17.1952 27.5123 20.126 26.4071 22.4366 24.5588L30.9382 33.0605C31.5242 33.6465 32.4745 33.6465 33.0605 33.0605C33.6465 32.4745 33.6465 31.5242 33.0605 30.9382L24.5588 22.4366ZM14.0061 24.5259C8.1962 24.5259 3.4863 19.8161 3.4863 14.0061C3.4863 8.1962 8.1962 3.4863 14.0061 3.4863C19.8161 3.4863 24.5259 8.1962 24.5259 14.0061C24.5259 19.8161 19.8161 24.5259 14.0061 24.5259Z" fill="black" stroke="black" stroke-width="0.00064"/>
</svg>
