<svg width="64" height="56" viewBox="0 0 64 56" fill="none" xmlns="http://www.w3.org/2000/svg">
<path d="M63.9385 23.9877L56.5629 1.29068C56.3494 0.634307 55.6444 0.27506 54.9877 0.488183L0.863976 18.0763C0.207483 18.2896 -0.151764 18.9949 0.0614839 19.6515L3.5527 30.395C3.5517 30.416 3.54957 30.4366 3.54957 30.4579V54.3233C3.54957 55.0135 4.10932 55.5733 4.79956 55.5733H61.7094C62.3996 55.5733 62.9594 55.0135 62.9594 54.3233V30.4579C62.9594 29.7676 62.3996 29.2079 61.7094 29.2079H51.9195L63.1361 25.5629C63.7925 25.3496 64.1517 24.6443 63.9385 23.9877ZM60.4593 31.7079V53.0733H6.04943V31.7079H12.9734V45.6337C12.9734 46.324 13.5331 46.8837 14.2233 46.8837C14.9136 46.8837 15.4733 46.324 15.4733 45.6337V31.7079H44.0282H60.4593ZM43.8302 29.2079H5.79555L2.82533 20.0676L9.41414 17.9265L11.9344 25.5859C12.1075 26.1119 12.5964 26.4456 13.1215 26.4456C13.251 26.4456 13.3827 26.4253 13.5125 26.3826C14.1682 26.1667 14.525 25.4603 14.3091 24.8044L11.7917 17.1538L54.5716 3.25203L61.1746 23.5716L43.8302 29.2079Z" fill="#071330"/>
<path d="M52.6751 8.73106C52.4616 8.07469 51.7565 7.71557 51.0999 7.92857L18.5092 18.5193C17.8527 18.7327 17.4934 19.438 17.7067 20.0946C17.8784 20.6228 18.3683 20.9586 18.8953 20.9586C19.0233 20.9586 19.1535 20.9387 19.2819 20.8971L51.8726 10.3063C52.5291 10.0929 52.8885 9.38768 52.6751 8.73106Z" fill="#071330"/>
<path d="M47.1788 16.8503L53.3477 14.8457C54.0042 14.6323 54.3635 13.927 54.1502 13.2704C53.9367 12.6139 53.2316 12.2548 52.575 12.4679L46.406 14.4725C45.7495 14.6859 45.3903 15.3912 45.6035 16.0478C45.7753 16.576 46.2652 16.9118 46.7922 16.9118C46.9201 16.9118 47.0505 16.8919 47.1788 16.8503Z" fill="#071330"/>
<path d="M52.3923 22.5924C52.5641 23.1206 53.054 23.4564 53.581 23.4564C53.7088 23.4564 53.8392 23.4365 53.9676 23.3949L55.9197 22.7605C56.5762 22.5471 56.9355 21.8419 56.7222 21.1853C56.5087 20.5288 55.8037 20.1695 55.1469 20.3828L53.1948 21.0171C52.5383 21.2305 52.179 21.9358 52.3923 22.5924Z" fill="#071330"/>
<path d="M48.8351 22.4338L46.8829 23.0681C46.2264 23.2815 45.867 23.9867 46.0804 24.6434C46.252 25.1716 46.742 25.5073 47.269 25.5073C47.3969 25.5073 47.5271 25.4875 47.6556 25.4458L49.6079 24.8115C50.2644 24.5981 50.6236 23.8929 50.4103 23.2362C50.1971 22.5797 49.4925 22.2206 48.8351 22.4338Z" fill="#071330"/>
<path d="M31.3911 19.352L19.9844 23.0587C19.3279 23.272 18.9685 23.9773 19.1819 24.6339C19.3536 25.1622 19.8435 25.4979 20.3705 25.4979C20.4984 25.4979 20.6288 25.478 20.7571 25.4364L32.1639 21.7297C32.8204 21.5163 33.1796 20.8111 32.9664 20.1545C32.7528 19.498 32.0476 19.1388 31.3911 19.352Z" fill="#071330"/>
<path d="M14.2233 48.5449C13.5331 48.5449 12.9733 49.1047 12.9733 49.7949V50.2844C12.9733 50.9746 13.5331 51.5344 14.2233 51.5344C14.9136 51.5344 15.4733 50.9746 15.4733 50.2844V49.7949C15.4733 49.1047 14.9136 48.5449 14.2233 48.5449Z" fill="#071330"/>
<path d="M20.194 36.3325C20.194 37.0228 20.7538 37.5825 21.444 37.5825H55.7122C56.4024 37.5825 56.9622 37.0228 56.9622 36.3325C56.9622 35.6423 56.4024 35.0825 55.7122 35.0825H21.444C20.7538 35.0825 20.194 35.6421 20.194 36.3325Z" fill="#071330"/>
<path d="M55.7123 39.8555H49.2258C48.5355 39.8555 47.9758 40.4152 47.9758 41.1055C47.9758 41.7957 48.5355 42.3554 49.2258 42.3554H55.7123C56.4026 42.3554 56.9623 41.7957 56.9623 41.1055C56.9623 40.4152 56.4026 39.8555 55.7123 39.8555Z" fill="#071330"/>
<path d="M55.7123 48.1777H53.6596C52.9694 48.1777 52.4096 48.7375 52.4096 49.4277C52.4096 50.118 52.9694 50.6777 53.6596 50.6777H55.7123C56.4026 50.6777 56.9623 50.118 56.9623 49.4277C56.9623 48.7375 56.4026 48.1777 55.7123 48.1777Z" fill="#071330"/>
<path d="M49.0755 48.1777H47.0229C46.3326 48.1777 45.7729 48.7375 45.7729 49.4277C45.7729 50.118 46.3326 50.6777 47.0229 50.6777H49.0755C49.7657 50.6777 50.3255 50.118 50.3255 49.4277C50.3255 48.7375 49.7658 48.1777 49.0755 48.1777Z" fill="#071330"/>
<path d="M33.438 39.8555H21.4441C20.7539 39.8555 20.1942 40.4152 20.1942 41.1055C20.1942 41.7957 20.7539 42.3554 21.4441 42.3554H33.438C34.1283 42.3554 34.688 41.7957 34.688 41.1055C34.688 40.4152 34.1283 39.8555 33.438 39.8555Z" fill="#071330"/>
</svg>
