<svg width="20" height="15" viewBox="0 0 20 15" fill="none" xmlns="http://www.w3.org/2000/svg">
<path fill-rule="evenodd" clip-rule="evenodd" d="M17.0753 1.00259C17.3921 0.936215 17.613 0.870953 17.794 0.802412C18.0476 0.706347 18.2579 0.591268 18.5902 0.397458C18.8694 0.234572 19.2272 0.220388 19.5217 0.360524C19.8163 0.50066 20 0.772477 20 1.06818C20 1.93684 19.8775 2.6488 19.5941 3.27536C19.3555 3.80238 19.0205 4.23044 18.6196 4.62004C18.4504 7.32272 17.5654 9.44517 16.2124 11.0531C14.81 12.7198 12.9442 13.7871 10.9774 14.3848C9.01631 14.9807 6.94425 15.1138 5.08796 14.912C3.24384 14.7116 1.53919 14.1719 0.351023 13.355C0.0256422 13.1313 -0.0887365 12.742 0.0723511 12.4066C0.233441 12.0712 0.629667 11.8736 1.03774 11.9251C2.2068 12.0728 3.33215 11.8378 4.25751 11.5019C4.07535 11.4143 3.90359 11.3195 3.74395 11.2217C2.90074 10.7057 2.22043 10.0052 1.91422 9.46381C1.7875 9.23984 1.78619 8.97633 1.91068 8.7514C1.9749 8.63528 2.06881 8.53635 2.18283 8.46089C0.951675 7.56268 0.454604 6.32036 0.454604 5.4881C0.454604 5.24063 0.583586 5.00696 0.80424 4.85468C0.897021 4.79064 1.00166 4.74399 1.11196 4.7159C1.01983 4.47743 0.948339 4.2365 0.893848 4.00325C0.65224 2.9691 0.673685 1.80187 0.936294 0.873275C1.02616 0.555507 1.32519 0.317755 1.69215 0.272318C2.05909 0.22689 2.42052 0.382873 2.60568 0.666591C3.58523 2.1675 5.39201 3.08492 7.07355 3.62837C7.86413 3.88388 8.59631 4.04669 9.14513 4.14679C9.26358 3.1659 9.5734 2.35698 10.0489 1.71449C10.6763 0.866838 11.5513 0.365322 12.4909 0.141698C14.1116 -0.243961 15.9098 0.195412 17.0753 1.00259ZM8.86222 5.73609C8.2394 5.62553 7.38342 5.4398 6.44925 5.1379C5.21542 4.73915 3.78267 4.11738 2.58253 3.15426C2.60402 3.33149 2.63451 3.50722 2.67445 3.67818C2.87559 4.53913 3.24933 5.0213 3.58843 5.17117C4.00316 5.35449 4.19536 5.78435 4.03448 6.1688C3.81667 6.6893 3.24378 6.73198 2.72325 6.61698C3.1419 7.1718 3.89439 7.72501 5.1495 7.90993C5.58239 7.97373 5.90194 8.30177 5.90901 8.68968C5.91609 9.07759 5.60868 9.41455 5.17833 9.49065L4.38701 9.63056C4.50806 9.72354 4.63914 9.81475 4.77887 9.90026C5.41243 10.288 6.04856 10.4552 6.59774 10.3339C7.00905 10.243 7.43683 10.4155 7.6288 10.7497C7.82075 11.0838 7.72591 11.4909 7.40021 11.7308C6.81483 12.1616 6.13118 12.5072 5.44602 12.794C5.12437 12.9287 4.76491 13.0616 4.37451 13.1786C4.67476 13.2353 4.9872 13.2817 5.30985 13.3169C6.91946 13.4918 8.71104 13.3738 10.3863 12.8648C12.0558 12.3575 13.599 11.466 14.7536 10.0939C15.9064 8.72375 16.7109 6.82761 16.8188 4.25297C16.8273 4.05027 16.9222 3.8579 17.0845 3.71446C17.4932 3.35312 17.831 2.93894 17.9972 2.44594C17.7064 2.52608 17.3789 2.59545 16.9889 2.66137C16.693 2.71137 16.3884 2.62857 16.1754 2.44029C15.4804 1.8259 14.1058 1.42187 12.9636 1.69368C12.426 1.82161 11.9374 2.09856 11.5704 2.59442C11.1958 3.10068 10.9091 3.88936 10.9091 5.08632C10.9091 5.31373 10.8001 5.53048 10.6092 5.68286C10.1565 6.04408 9.39458 5.83058 8.86222 5.73609Z" fill="#FDFDFD"/>
</svg>
